<svg width="30" height="30" viewBox="0 0 30 30" fill="none" xmlns="http://www.w3.org/2000/svg">
<path d="M25 3.75C25 1.6825 23.3175 0 21.25 0H3.75C1.6825 0 0 1.6825 0 3.75V6.25C0 8.3175 1.6825 10 3.75 10H21.25C23.3175 10 25 8.3175 25 6.25C26.3787 6.25 27.5 7.37125 27.5 8.75V10C27.5 11.3787 26.3787 12.5 25 12.5H16.25C13.4925 12.5 11.25 14.7425 11.25 17.5V17.73C9.79875 18.2475 8.75 19.6225 8.75 21.25V26.25C8.75 28.3175 10.4325 30 12.5 30C14.5675 30 16.25 28.3175 16.25 26.25V21.25C16.25 19.6225 15.2013 18.2475 13.75 17.73V17.5C13.75 16.1213 14.8713 15 16.25 15H25C27.7575 15 30 12.7575 30 10V8.75C30 5.9925 27.7575 3.75 25 3.75ZM22.5 6.25C22.5 6.94 21.9387 7.5 21.25 7.5H3.75C3.06125 7.5 2.5 6.94 2.5 6.25V3.75C2.5 3.06 3.06125 2.5 3.75 2.5H21.25C21.9387 2.5 22.5 3.06 22.5 3.75V6.25ZM13.75 26.25C13.75 26.94 13.1888 27.5 12.5 27.5C11.8112 27.5 11.25 26.94 11.25 26.25V21.25C11.25 20.56 11.8112 20 12.5 20C13.1888 20 13.75 20.56 13.75 21.25V26.25Z" fill="white"/>
</svg>
