<svg width="25" height="25" viewBox="0 0 25 25" fill="none" xmlns="http://www.w3.org/2000/svg">
<path d="M19.7916 4.1665H5.20829C4.633 4.1665 4.16663 4.63287 4.16663 5.20817V19.7915C4.16663 20.3668 4.633 20.8332 5.20829 20.8332H19.7916C20.3669 20.8332 20.8333 20.3668 20.8333 19.7915V5.20817C20.8333 4.63287 20.3669 4.1665 19.7916 4.1665Z" stroke="white" stroke-width="2" stroke-linecap="round" stroke-linejoin="round"/>
<path d="M16.6666 16.6665H16.6686V16.6685H16.6666V16.6665Z" stroke="white" stroke-width="2" stroke-linecap="round" stroke-linejoin="round"/>
<path d="M12.5 16.6665H12.502V16.6685H12.5V16.6665Z" stroke="white" stroke-width="2" stroke-linecap="round" stroke-linejoin="round"/>
<path d="M8.33337 16.6665H8.33537V16.6685H8.33337V16.6665Z" stroke="white" stroke-width="2" stroke-linecap="round" stroke-linejoin="round"/>
<path d="M16.6666 12.5H16.6686V12.502H16.6666V12.5Z" stroke="white" stroke-width="2" stroke-linecap="round" stroke-linejoin="round"/>
<path d="M12.5 12.5H12.502V12.502H12.5V12.5Z" stroke="white" stroke-width="2" stroke-linecap="round" stroke-linejoin="round"/>
<path d="M8.33337 12.5H8.33537V12.502H8.33337V12.5Z" stroke="white" stroke-width="2" stroke-linecap="round" stroke-linejoin="round"/>
<path d="M4.16663 8.3335H20.8333" stroke="white" stroke-width="2" stroke-linecap="round" stroke-linejoin="round"/>
<path d="M16.6666 2.0835V4.16683" stroke="white" stroke-width="2" stroke-linecap="round" stroke-linejoin="round"/>
<path d="M8.33337 2.0835V4.16683" stroke="white" stroke-width="2" stroke-linecap="round" stroke-linejoin="round"/>
</svg>
