<svg width="33" height="32" viewBox="0 0 33 32" fill="none" xmlns="http://www.w3.org/2000/svg">
<path d="M32.5825 0.42925C32.3156 0.154352 31.9541 0 31.5772 0C31.2004 0 30.8389 0.154352 30.5719 0.42925L23.8737 7.3518L23.4238 6.89698C22.2376 5.69956 20.6805 4.97321 19.0269 4.84588C17.3734 4.71855 15.7294 5.19842 14.3845 6.20095C12.4436 7.71362 10.2861 8.90398 7.99 9.72906L5.07393 10.6125C4.12634 10.9 3.24743 11.3892 2.49364 12.0486C1.73985 12.708 1.12787 13.5231 0.697016 14.4415C0.273253 15.3474 0.037229 16.3348 0.00405914 17.3404C-0.0291107 18.3461 0.141305 19.3478 0.504393 20.2814C1.88057 23.7729 4.23976 26.7566 7.2762 28.846C10.3126 30.9353 13.8863 32.0338 17.534 31.9992H18.8332C19.1238 31.999 19.4075 31.9067 19.6458 31.7347C22.1207 30.0652 24.2358 27.8861 25.8591 25.3337C27.4824 22.7812 28.5789 19.9102 29.0802 16.9001C29.2545 15.7491 29.1601 14.5717 28.8047 13.4661C28.4493 12.3604 27.8433 11.3587 27.0372 10.5442L25.9124 9.40502L32.5868 2.50718C32.8522 2.2307 33.0008 1.85678 33 1.46731C32.9992 1.07784 32.8491 0.704569 32.5825 0.42925ZM18.372 29.0552H17.5284C15.4509 29.0582 13.393 28.64 11.4713 27.8245L11.4867 27.8157C13.9457 26.5406 16.0508 24.6406 17.6043 22.294L18.3326 21.1882C18.5448 20.8664 18.6246 20.4707 18.5545 20.088C18.4843 19.7054 18.27 19.3673 17.9586 19.148C17.6472 18.9287 17.2643 18.8463 16.8941 18.9188C16.5239 18.9912 16.1968 19.2128 15.9846 19.5346L15.2563 20.6404C13.9729 22.5753 12.2351 24.1417 10.2059 25.1929L8.44695 26.1084C7.0397 25.086 5.81151 23.8231 4.81522 22.3739C7.11965 21.5727 9.22208 20.2502 10.9693 18.5029C11.2389 18.2304 11.3928 17.8584 11.397 17.4687C11.4012 17.079 11.2555 16.7036 10.9918 16.4249C10.7282 16.1463 10.3683 15.9873 9.99119 15.9829C9.61413 15.9786 9.25084 16.1292 8.98124 16.4017C7.40775 17.9774 5.48734 19.1343 3.38531 19.7729C3.29954 19.5767 3.20675 19.3849 3.12942 19.1829C2.91166 18.6302 2.80972 18.0361 2.83032 17.4398C2.85092 16.8434 2.99359 16.2583 3.24893 15.7231C3.50742 15.1735 3.87403 14.6857 4.3253 14.2909C4.77658 13.8961 5.30259 13.6029 5.86973 13.4301L8.78439 12.5466C10.4758 11.9851 12.0936 11.21 13.6014 10.2391L24.73 21.4454C23.2513 24.4874 21.067 27.1038 18.372 29.061V29.0552ZM26.2738 16.438C26.1663 17.1178 26.0212 17.7908 25.8393 18.4534L16.038 8.58838C16.7571 8.05427 17.6201 7.76663 18.5056 7.76593C19.6009 7.7645 20.6531 8.20749 21.4357 8.99961L25.0477 12.6454C25.5299 13.1319 25.8928 13.7304 26.106 14.3911C26.3193 15.0518 26.3768 15.7555 26.2738 16.4438V16.438Z" fill="white"/>
</svg>
