<svg width="16" height="17" viewBox="0 0 16 17" fill="none" xmlns="http://www.w3.org/2000/svg">
<path d="M14.1329 0.51709H0.49205C0.0339612 0.51709 -0.356262 0.910482 -0.356262 1.3894V2.94588C-0.356262 3.4248 0.0339612 3.81819 0.49205 3.81819H14.1329C14.608 3.81819 14.9812 3.4248 14.9982 2.94588V1.4065C14.9982 0.910483 14.608 0.51709 14.1329 0.51709ZM14.1329 9.15469H0.49205C0.271488 9.15469 0.0509274 9.24022 -0.101769 9.41126C-0.271431 9.5823 -0.356262 9.78755 -0.356262 10.027V11.5835C-0.356262 12.0624 0.0339612 12.4558 0.49205 12.4558H14.1329C14.608 12.4558 14.9812 12.0795 14.9982 11.5835V10.027C14.9812 9.53098 14.608 9.15469 14.1329 9.15469ZM8.17775 13.4649H0.49205C0.271488 13.4649 0.0509274 13.5505 -0.101769 13.7215C-0.254465 13.8925 -0.356262 14.0978 -0.356262 14.3373V15.8937C-0.356262 16.3727 0.0339612 16.7661 0.49205 16.7661H8.16079C8.63584 16.7661 9.0091 16.3727 9.0091 15.9108V14.3544C9.02606 13.8412 8.65281 13.4649 8.17775 13.4649ZM14.9982 4.82734H0.49205C0.271488 4.82734 0.0509274 4.91286 -0.101769 5.0839C-0.254465 5.25494 -0.356262 5.46019 -0.356262 5.69965V7.25613C-0.356262 7.73505 0.0339612 8.12844 0.49205 8.12844H14.9812C15.4563 8.12844 15.8295 7.73505 15.8295 7.25613V5.69965C15.8465 5.23784 15.4563 4.84444 14.9982 4.82734Z" fill="#2DBDEF"/>
</svg>
