<svg width="22" height="30" viewBox="0 0 22 30" fill="none" xmlns="http://www.w3.org/2000/svg">
<path d="M3.67317 2.86013C5.16454 1.4972 6.99101 0.576086 8.95603 0.195932C10.921 -0.184221 12.9502 -0.00902453 14.8251 0.702668C16.7001 1.41436 18.3498 2.6356 19.5967 4.23497C20.8437 5.83433 21.6406 7.75126 21.9019 9.77946C22.1365 11.5579 21.9489 13.3679 21.3548 15.0564C20.7608 16.7449 19.7779 18.2621 18.4893 19.4798C17.6924 20.1946 17.0493 21.071 16.6009 22.0534C16.1525 23.0358 15.9085 24.1028 15.8843 25.1867V25.3879C15.883 26.6107 15.4076 27.7831 14.5623 28.6477C13.7171 29.5123 12.571 29.9987 11.3757 30H10.6181C9.42278 29.9987 8.27675 29.5123 7.4315 28.6477C6.58625 27.7831 6.11082 26.6107 6.10953 25.3879V24.7018C6.09124 23.7437 5.87084 22.801 5.46341 21.9381C5.05599 21.0752 4.47115 20.3125 3.74892 19.7023C2.57767 18.6529 1.63777 17.3609 0.991484 15.912C0.345198 14.463 0.00727844 12.8901 0.000116348 11.2974C-0.00704575 9.70475 0.316711 8.12871 0.949938 6.67371C1.58317 5.21871 2.51141 3.91796 3.67317 2.85763V2.86013ZM10.6181 27.5002H11.3757C11.9231 27.4996 12.448 27.2768 12.8351 26.8808C13.2222 26.4848 13.44 25.948 13.4406 25.3879C13.4406 25.3879 13.4492 25.063 13.4504 25.0005H8.55322V25.3879C8.55387 25.948 8.77163 26.4848 9.15873 26.8808C9.54584 27.2768 10.0707 27.4996 10.6181 27.5002ZM5.3642 17.8249C6.75536 19.0592 7.76003 20.6856 8.25264 22.5007H9.77506V13.5216C9.06284 13.264 8.44581 12.7876 8.00838 12.1576C7.57096 11.5276 7.3345 10.7747 7.33137 10.0019C7.33137 9.67045 7.4601 9.35254 7.68924 9.11814C7.91838 8.88375 8.22917 8.75206 8.55322 8.75206C8.87727 8.75206 9.18805 8.88375 9.41719 9.11814C9.64633 9.35254 9.77506 9.67045 9.77506 10.0019C9.77506 10.3334 9.9038 10.6513 10.1329 10.8857C10.3621 11.1201 10.6729 11.2518 10.9969 11.2518C11.321 11.2518 11.6317 11.1201 11.8609 10.8857C12.09 10.6513 12.2188 10.3334 12.2188 10.0019C12.2188 9.67045 12.3475 9.35254 12.5766 9.11814C12.8058 8.88375 13.1165 8.75206 13.4406 8.75206C13.7647 8.75206 14.0754 8.88375 14.3046 9.11814C14.5337 9.35254 14.6624 9.67045 14.6624 10.0019C14.6593 10.7747 14.4229 11.5276 13.9854 12.1576C13.548 12.7876 12.931 13.264 12.2188 13.5216V22.5007H13.834C14.3851 20.6374 15.4186 18.9613 16.8251 17.65C18.0189 16.5121 18.8696 15.0486 19.2768 13.4322C19.684 11.8159 19.6307 10.1141 19.1232 8.5277C18.6156 6.94133 17.6751 5.53656 16.4125 4.47918C15.15 3.4218 13.6181 2.75594 11.9976 2.56016C11.6617 2.5218 11.3239 2.50261 10.9859 2.50267C8.88731 2.49629 6.86136 3.28837 5.30189 4.72495C4.3981 5.54937 3.67593 6.56089 3.18327 7.69245C2.69061 8.82401 2.4387 10.0498 2.44425 11.2885C2.44979 12.5272 2.71267 13.7505 3.21544 14.8774C3.71821 16.0043 4.4494 17.009 5.36053 17.8249H5.3642Z" fill="white"/>
</svg>
