<svg width="26" height="29" viewBox="0 0 26 29" fill="none" xmlns="http://www.w3.org/2000/svg">
<path d="M16.5462 29C15.8926 29 15.3643 28.4599 15.3643 27.7917V26.1026C15.3643 24.2841 16.3157 22.6554 17.8463 21.8543C21.4179 19.9814 23.6374 16.272 23.6374 12.1724C23.6374 7.99779 21.3588 4.25818 17.6926 2.41194L17.7281 9.66762C17.7281 12.3331 15.6078 14.5007 13.0006 14.5007C10.3934 14.5007 8.2731 12.3331 8.2731 9.66762V2.43248C4.64239 4.25818 2.36374 7.99779 2.36374 12.1724C2.36374 16.272 4.5833 19.9814 8.15492 21.8543C9.68544 22.6554 10.6368 24.2841 10.6368 26.1026V27.7917C10.6368 28.4599 10.1086 29 9.45498 29C8.8014 29 8.2731 28.4599 8.2731 27.7917V26.1026C8.2731 25.2096 7.8039 24.3856 7.07705 24.005C2.7124 21.7165 0 17.1831 0 12.1736C0 7.07225 2.78331 2.50014 7.26378 0.243089C7.98473 -0.119393 8.82504 -0.0746865 9.51052 0.365125C10.2161 0.813395 10.6368 1.58669 10.6368 2.43248V9.66762C10.6368 11.0003 11.697 12.0842 13.0006 12.0842C14.3042 12.0842 15.3643 11.0003 15.3643 9.66762V2.43248C15.3643 1.58669 15.7851 0.813395 16.4907 0.365125C17.1773 -0.07227 18.0188 -0.116976 18.7362 0.243089C23.2167 2.50014 26 7.07104 26 12.1724C26 17.1819 23.2876 21.7153 18.923 24.0038C18.1973 24.3844 17.7269 25.2084 17.7269 26.1014V27.7905C17.7269 28.4587 17.1986 28.9988 16.545 28.9988L16.5462 29Z" fill="white"/>
</svg>
